<?xml version="1.0" encoding="UTF-8" standalone="no"?>
<!-- Created with Inkscape (http://www.inkscape.org/) -->

<svg
   width="74.699997mm"
   height="88.179001mm"
   viewBox="0 0 74.699997 88.179"
   version="1.1"
   id="svg1"
   xml:space="preserve"
   inkscape:version="1.4 (e7c3feb1, 2024-10-09)"
   sodipodi:docname="drawing.svg"
   xmlns:inkscape="http://www.inkscape.org/namespaces/inkscape"
   xmlns:sodipodi="http://sodipodi.sourceforge.net/DTD/sodipodi-0.dtd"
   xmlns="http://www.w3.org/2000/svg"
   xmlns:svg="http://www.w3.org/2000/svg"><sodipodi:namedview
     id="namedview1"
     pagecolor="#505050"
     bordercolor="#ffffff"
     borderopacity="1"
     inkscape:showpageshadow="0"
     inkscape:pageopacity="0"
     inkscape:pagecheckerboard="1"
     inkscape:deskcolor="#505050"
     inkscape:document-units="mm"
     inkscape:zoom="0.88500996"
     inkscape:cx="-74.010466"
     inkscape:cy="49.151989"
     inkscape:window-width="1792"
     inkscape:window-height="990"
     inkscape:window-x="0"
     inkscape:window-y="25"
     inkscape:window-maximized="1"
     inkscape:current-layer="layer1" /><defs
     id="defs1" /><g
     inkscape:label="Layer 1"
     inkscape:groupmode="layer"
     id="layer1"
     transform="translate(-70.340439,-88.848491)"><path
       style="display:inline;opacity:1;fill:#ffffff;fill-opacity:1;stroke-width:0.264583"
       d="m 70.350677,88.924571 c 9.964139,16.418219 14.58283,15.265509 26.463689,20.875089 0.489623,0.23118 9.788814,0.23886 11.104594,0.22789 1.26729,-0.0106 10.42268,-0.0689 10.92108,-0.22789 24.54372,-7.83073 26.08491,-22.118032 26.13495,-20.875089 0.59744,14.840729 -3.05419,17.597379 -3.959,19.500309 -2.96487,6.23545 -0.41338,17.06972 -1.46523,23.89357 -0.34314,2.22611 -1.11237,4.40451 -2.13682,6.41046 -5.05363,9.89542 -27.1288,38.31441 -29.09362,38.29838 -1.82102,-0.0149 -28.827749,-35.15879 -31.230443,-40.92832 -1.694364,-4.06864 -0.193621,-22.82693 -0.657484,-23.50501 -4.572376,-6.684 -6.240284,-23.930667 -6.081716,-23.669389 z"
       id="path2"
       sodipodi:nodetypes="ssssssssssss" /><path
       style="display:inline;opacity:1;fill:#000000;fill-opacity:1;stroke-width:0.264583"
       d="m 88.514546,121.34389 c 2.244075,-1.98442 17.035984,9.32861 17.038014,10.49292 0.007,3.99883 -7.687439,13.70345 -16.518562,7.79177 -8.831123,-5.91168 -5.08708,-14.24557 -0.519452,-18.28469 z"
       id="path3"
       sodipodi:nodetypes="sszs" /><path
       style="display:inline;fill:#000000;fill-opacity:1;stroke-width:0.264583"
       d="m 128.05545,121.87477 c -2.24407,-1.98442 -17.03598,9.32861 -17.03801,10.49292 -0.007,3.99883 7.68743,13.70345 16.51856,7.79177 8.83112,-5.91168 5.08708,-14.24557 0.51945,-18.28469 z"
       id="path3-2"
       sodipodi:nodetypes="sszs" /><circle
       style="display:inline;opacity:1;fill:#ffffff;fill-opacity:1;stroke-width:0.264583"
       id="path1"
       cx="94.513184"
       cy="130.83911"
       r="7.3966832" /><circle
       style="display:inline;fill:#ffffff;fill-opacity:1;stroke-width:0.264583"
       id="path1-5"
       cx="121.96662"
       cy="130.92955"
       r="7.3966832" /><path
       style="opacity:1;fill:#000000;fill-opacity:1;stroke-width:0.264583"
       d="m 107.83815,135.1613 c -0.9108,0 -2.69683,4.19162 -2.70115,5.2984 -0.004,1.10678 1.58083,5.37349 2.70115,5.4023 1.12032,0.0288 3.11671,-4.08572 3.11671,-5.50619 0,-1.42047 -2.20591,-5.19451 -3.11671,-5.19451 z"
       id="path4"
       sodipodi:nodetypes="zzzzz" /></g></svg>
